<svg id="SvgjsSvg1107" width="288" height="288" xmlns="http://www.w3.org/2000/svg" version="1.1" xmlns:xlink="http://www.w3.org/1999/xlink" xmlns:svgjs="http://svgjs.com/svgjs"><defs id="SvgjsDefs1108"></defs><g id="SvgjsG1109"><svg xmlns="http://www.w3.org/2000/svg" fill-rule="evenodd" clip-rule="evenodd" image-rendering="optimizeQuality" shape-rendering="geometricPrecision" text-rendering="geometricPrecision" viewBox="0 0 100000 100000" width="288" height="288"><path d="M42616 44396c0,0 6519,469 2739,-8079 -3783,-8548 -4279,-11238 -11643,-6403 -3513,2308 -5435,3409 -5959,5100 -3150,10100 28995,41644 37766,36997 1405,-745 2506,-2610 4558,-5734 4835,-7363 2142,-7859 -6404,-11641 -8549,-3782 -8079,2738 -8079,2738l-12978 -12978zm7384 -29356c19308,0 34960,15652 34960,34960 0,19308 -15652,34960 -34960,34960 -19308,0 -34960,-15652 -34960,-34960 0,-19308 15652,-34960 34960,-34960zm0 2644c-17848,0 -32316,14468 -32316,32316 0,17848 14468,32316 32316,32316 17848,0 32316,-14468 32316,-32316 0,-17848 -14468,-32316 -32316,-32316z" fill="#50b3ba" class="color000 svgShape"></path></svg></g></svg>